<svg width="232" height="232" viewBox="0 0 232 232" fill="none" xmlns="http://www.w3.org/2000/svg">
<g clip-path="url(#clip0_1_715)">
<path d="M149.871 16.0215C151.721 10.5606 157.673 7.59032 162.945 9.92359C187.274 20.6894 207.271 39.5498 219.417 63.4562C233.147 90.4784 235.754 121.801 226.682 150.721C217.609 179.641 197.578 203.862 170.874 218.2C147.249 230.885 120.062 234.943 93.9434 229.884C88.2827 228.788 85.0938 222.95 86.6945 217.411C88.2953 211.871 94.0807 208.74 99.7619 209.724C120.609 213.337 142.181 209.907 160.997 199.804C182.894 188.047 199.32 168.186 206.759 144.471C214.198 120.757 212.06 95.0723 200.802 72.9141C191.129 53.8742 175.381 38.7375 156.206 29.7948C150.981 27.3577 148.021 21.4825 149.871 16.0215Z" fill="#ED2D95"/>
<path d="M32.9739 50.8112C28.4389 47.2505 27.6165 40.6501 31.5704 36.4534C44.6008 22.623 60.8702 12.1644 78.9793 6.06608C97.0883 -0.0322203 116.37 -1.54562 135.112 1.58524C140.799 2.53526 144.137 8.2886 142.68 13.8673C141.223 19.4459 135.52 22.7261 129.816 21.8886C115.033 19.7185 99.8952 21.0547 85.643 25.8542C71.3908 30.6537 58.5282 38.7468 48.0698 49.4169C44.0338 53.5346 37.5089 54.3719 32.9739 50.8112Z" fill="#18A0FB"/>
<path d="M80.4558 215.396C78.5143 220.825 72.5139 223.695 67.2813 221.273C54.5221 215.369 42.9154 207.181 33.0473 197.085C20.7413 184.496 11.4621 169.271 5.91307 152.563C0.364 135.856 -1.30944 118.104 1.01956 100.654C2.88714 86.6611 7.28906 73.1561 13.9803 60.7914C16.7245 55.7204 23.2497 54.4304 28.0534 57.6192C32.8572 60.8081 34.1093 67.2662 31.4659 72.3904C26.4708 82.073 23.1642 92.5657 21.716 103.416C19.8063 117.726 21.1785 132.282 25.7287 145.982C30.279 159.682 37.8878 172.167 47.9788 182.49C55.6308 190.318 64.5578 196.748 74.3531 201.518C79.5369 204.043 82.3973 209.967 80.4558 215.396Z" fill="#3CDC86"/>
<path d="M69.6929 146.548H67.3889V144.232H66.4889V146.548H64.1849V147.436H66.4889V149.74H67.3889V147.436H69.6929V146.548ZM75.2101 151H76.1461V148.996H77.3821V148.144H76.1461V142.756H75.0661L70.9741 148.216L71.0941 148.996H75.2101V151ZM72.0421 148.144L75.2101 143.884V148.144H72.0421ZM82.1107 151.144C84.1147 151.144 85.5307 149.38 85.5307 146.872C85.5307 144.376 84.1147 142.612 82.1107 142.612C80.0947 142.612 78.6787 144.376 78.6787 146.872C78.6787 149.38 80.0947 151.144 82.1107 151.144ZM82.1107 150.28C80.6587 150.28 79.6267 148.864 79.6267 146.872C79.6267 144.88 80.6587 143.476 82.1107 143.476C83.5627 143.476 84.5827 144.88 84.5827 146.872C84.5827 148.864 83.5627 150.28 82.1107 150.28ZM94.4406 151H95.3766V148.996H96.6126V148.144H95.3766V142.756H94.2966L90.2046 148.216L90.3246 148.996H94.4406V151ZM91.2726 148.144L94.4406 143.884V148.144H91.2726ZM99.3612 151H100.297V142.756H99.5412L97.5132 144.136L97.9212 144.832L99.3612 143.896V151ZM105.068 151.144C106.76 151.144 108.08 150.244 108.08 148.84C108.08 147.808 107.264 147.076 106.268 146.74C107.12 146.428 107.876 145.816 107.876 144.808C107.876 143.452 106.544 142.612 105.068 142.612C103.64 142.612 102.272 143.428 102.272 144.796C102.272 145.744 102.944 146.38 103.88 146.74C102.872 147.064 102.056 147.808 102.056 148.84C102.056 150.232 103.364 151.144 105.068 151.144ZM105.068 146.368C104.288 146.32 103.22 145.852 103.22 144.892C103.22 144.064 104.036 143.464 105.068 143.464C106.1 143.464 106.928 144.064 106.928 144.892C106.928 145.828 105.872 146.32 105.068 146.368ZM105.068 150.292C103.928 150.292 103.004 149.68 103.004 148.78C103.004 147.784 104.216 147.208 105.068 147.184C105.932 147.208 107.132 147.784 107.132 148.78C107.132 149.68 106.208 150.292 105.068 150.292ZM113.545 143.668C113.869 143.668 114.133 143.392 114.133 143.068C114.133 142.756 113.869 142.48 113.545 142.48C113.209 142.48 112.945 142.756 112.945 143.068C112.945 143.392 113.209 143.668 113.545 143.668ZM113.089 151H113.989V144.796H113.089V151ZM118.749 144.652C117.873 144.652 117.069 145.132 116.709 145.792V144.796H115.809V151H116.709V147.052C116.709 146.188 117.585 145.456 118.629 145.456C119.541 145.456 120.177 146.164 120.177 147.172V151H121.077V147.052C121.077 145.648 120.117 144.652 118.749 144.652ZM129.103 150.088C128.971 150.232 128.731 150.34 128.455 150.34C128.095 150.34 127.783 150.016 127.783 149.56V145.6H129.307V144.796H127.783V143.092H126.883V144.796H125.911V145.6H126.883V149.56C126.883 150.484 127.507 151.144 128.395 151.144C128.815 151.144 129.223 151 129.547 150.748L129.103 150.088ZM133.772 144.652C132.896 144.652 132.092 145.132 131.732 145.792V142.612H130.832V151H131.732V147.052C131.732 146.188 132.608 145.456 133.652 145.456C134.564 145.456 135.2 146.164 135.2 147.172V151H136.1V147.052C136.1 145.648 135.14 144.652 133.772 144.652ZM140.718 150.34C139.494 150.34 138.642 149.452 138.51 148.24H143.586C143.586 146.068 142.518 144.652 140.646 144.652C138.978 144.652 137.586 146.032 137.586 147.88C137.586 149.788 139.074 151.144 140.73 151.144C141.594 151.144 142.686 150.772 143.226 150.184L142.674 149.596C142.29 150.016 141.45 150.34 140.718 150.34ZM140.682 145.456C141.918 145.456 142.578 146.32 142.698 147.436H138.522C138.69 146.236 139.578 145.456 140.682 145.456ZM148.539 151H149.439V142.612H148.539V151ZM153.778 144.652C153.178 144.652 152.434 144.808 151.546 145.252L151.906 145.984C152.47 145.696 153.094 145.42 153.718 145.42C155.062 145.42 155.398 146.38 155.398 147.22V147.448C154.762 147.244 154.054 147.1 153.382 147.1C152.05 147.1 150.946 147.928 150.946 149.164C150.946 150.388 151.906 151.144 153.214 151.144C154.03 151.144 154.954 150.76 155.398 150.028V151H156.298V147.22C156.298 145.72 155.47 144.652 153.778 144.652ZM153.37 150.352C152.494 150.352 151.822 149.896 151.822 149.128C151.822 148.384 152.602 147.856 153.526 147.856C154.198 147.856 154.834 147.952 155.398 148.108V149.056C155.158 149.932 154.186 150.352 153.37 150.352ZM160.333 151.144C161.617 151.144 162.601 150.412 162.601 149.272C162.601 148.096 161.569 147.76 160.573 147.448C159.421 147.076 158.965 146.908 158.965 146.368C158.965 145.768 159.541 145.456 160.237 145.456C160.789 145.456 161.401 145.648 162.025 146.044L162.457 145.348C161.797 144.916 161.005 144.652 160.237 144.652C159.001 144.652 158.065 145.348 158.065 146.476C158.065 147.364 158.641 147.808 160.141 148.24C160.981 148.48 161.701 148.696 161.701 149.368C161.701 149.956 161.149 150.34 160.333 150.34C159.649 150.34 158.941 150.076 158.233 149.56L157.765 150.22C158.509 150.82 159.469 151.144 160.333 151.144ZM166.814 150.088C166.682 150.232 166.442 150.34 166.166 150.34C165.806 150.34 165.494 150.016 165.494 149.56V145.6H167.018V144.796H165.494V143.092H164.594V144.796H163.622V145.6H164.594V149.56C164.594 150.484 165.218 151.144 166.106 151.144C166.526 151.144 166.934 151 167.258 150.748L166.814 150.088ZM95.7886 167.144C97.5046 167.144 98.6566 166.148 98.6566 164.768C98.6566 163.58 97.7206 162.968 96.8806 162.776C97.7326 162.524 98.4766 161.9 98.4766 160.844C98.4766 159.524 97.3246 158.612 95.7526 158.612C94.4686 158.612 93.5566 159.236 92.9326 160.064L93.5566 160.628C94.1446 159.92 94.7926 159.464 95.7046 159.464C96.7366 159.464 97.5286 160.088 97.5286 160.952C97.5286 161.888 96.7006 162.416 95.5966 162.404L94.7086 162.392V163.256H95.5846C96.8806 163.256 97.7086 163.748 97.7086 164.72C97.7086 165.656 96.9406 166.292 95.7886 166.292C94.7806 166.292 93.9766 165.812 93.4366 165.116L92.7886 165.728C93.3886 166.52 94.4326 167.144 95.7886 167.144ZM103.48 167.144C105.484 167.144 106.9 165.38 106.9 162.872C106.9 160.376 105.484 158.612 103.48 158.612C101.464 158.612 100.048 160.376 100.048 162.872C100.048 165.38 101.464 167.144 103.48 167.144ZM103.48 166.28C102.028 166.28 100.996 164.864 100.996 162.872C100.996 160.88 102.028 159.476 103.48 159.476C104.932 159.476 105.952 160.88 105.952 162.872C105.952 164.864 104.932 166.28 103.48 166.28ZM116.854 158.612V161.96C116.386 161.144 115.594 160.652 114.598 160.652C112.966 160.652 111.742 161.996 111.742 163.892C111.742 165.8 112.966 167.144 114.598 167.144C115.594 167.144 116.386 166.652 116.854 165.836V167H117.754V158.612H116.854ZM114.766 166.34C113.554 166.34 112.69 165.32 112.69 163.892C112.69 162.464 113.554 161.456 114.766 161.456C115.99 161.456 116.854 162.464 116.854 163.892C116.854 165.32 115.99 166.34 114.766 166.34ZM122.178 160.652C121.578 160.652 120.834 160.808 119.946 161.252L120.306 161.984C120.87 161.696 121.494 161.42 122.118 161.42C123.462 161.42 123.798 162.38 123.798 163.22V163.448C123.162 163.244 122.454 163.1 121.782 163.1C120.45 163.1 119.346 163.928 119.346 165.164C119.346 166.388 120.306 167.144 121.614 167.144C122.43 167.144 123.354 166.76 123.798 166.028V167H124.698V163.22C124.698 161.72 123.87 160.652 122.178 160.652ZM121.77 166.352C120.894 166.352 120.222 165.896 120.222 165.128C120.222 164.384 121.002 163.856 121.926 163.856C122.598 163.856 123.234 163.952 123.798 164.108V165.056C123.558 165.932 122.586 166.352 121.77 166.352ZM127.461 169.16C128.313 169.148 128.913 168.752 129.345 167.696L132.177 160.796H131.205L129.153 165.956L126.981 160.796H125.985L128.685 167.024L128.325 167.792C128.085 168.212 127.821 168.344 127.425 168.344C127.161 168.344 126.909 168.296 126.693 168.188L126.477 168.956C126.765 169.088 127.101 169.16 127.461 169.16ZM135.846 167.144C137.13 167.144 138.114 166.412 138.114 165.272C138.114 164.096 137.082 163.76 136.086 163.448C134.934 163.076 134.478 162.908 134.478 162.368C134.478 161.768 135.054 161.456 135.75 161.456C136.302 161.456 136.914 161.648 137.538 162.044L137.97 161.348C137.31 160.916 136.518 160.652 135.75 160.652C134.514 160.652 133.578 161.348 133.578 162.476C133.578 163.364 134.154 163.808 135.654 164.24C136.494 164.48 137.214 164.696 137.214 165.368C137.214 165.956 136.662 166.34 135.846 166.34C135.162 166.34 134.454 166.076 133.746 165.56L133.278 166.22C134.022 166.82 134.982 167.144 135.846 167.144Z" fill="white"/>
<path d="M70.709 122.768C79.925 122.768 87.285 118.032 87.285 110.416C87.285 105.04 83.253 101.136 78.005 99.28C82.485 97.552 86.197 94.288 86.197 89.04C86.197 81.744 78.901 77.264 70.709 77.264C62.773 77.264 55.285 81.552 55.285 89.04C55.285 94.032 58.677 97.36 63.477 99.28C58.229 101.072 54.133 104.976 54.133 110.416C54.133 117.968 61.429 122.768 70.709 122.768ZM70.709 96.848C66.805 96.592 61.749 94.288 61.749 89.744C61.749 85.84 65.653 82.96 70.709 82.96C75.765 82.96 79.733 85.84 79.733 89.744C79.733 94.16 74.741 96.592 70.709 96.848ZM70.709 117.072C65.077 117.072 60.661 114.128 60.661 109.84C60.661 105.168 66.421 102.352 70.709 102.224C75.061 102.352 80.757 105.168 80.757 109.84C80.757 114.128 76.341 117.072 70.709 117.072ZM109.449 122.768C118.985 122.768 125.705 116.944 125.705 108.048C125.705 99.28 119.049 94.288 111.177 94.288C107.273 94.288 104.329 95.568 102.025 97.104L102.409 84.048H123.337V78.032H96.2645L95.6245 101.008L100.169 103.056C102.793 101.072 105.929 99.856 109.577 99.856C115.273 99.856 119.177 103.248 119.177 108.304C119.177 113.232 115.337 117.072 109.641 117.072C104.969 117.072 100.873 114.768 97.4805 111.248L93.4485 115.856C97.2245 119.952 102.473 122.768 109.449 122.768ZM142.311 99.792C148.455 99.792 152.807 94.992 152.807 88.72C152.807 82.576 148.647 77.648 142.375 77.648C136.167 77.648 131.879 82.512 131.879 88.848C131.879 94.864 136.039 99.792 142.311 99.792ZM137.383 122H142.439L172.711 78.032H167.591L137.383 122ZM142.375 95.696C139.111 95.696 136.679 92.752 136.679 88.784C136.679 84.688 138.983 81.808 142.311 81.808C145.575 81.808 148.007 84.752 148.007 88.784C148.007 92.816 145.639 95.696 142.375 95.696ZM167.527 122.64C173.671 122.64 178.023 117.84 178.023 111.504C178.023 105.488 173.863 100.496 167.591 100.496C161.382 100.496 157.095 105.488 157.095 111.568C157.095 117.84 161.447 122.64 167.527 122.64ZM167.591 118.48C164.263 118.48 161.895 115.536 161.895 111.504C161.895 107.6 164.199 104.592 167.527 104.592C170.791 104.592 173.223 107.536 173.223 111.568C173.223 115.6 170.919 118.48 167.591 118.48Z" fill="white"/>
<path d="M90.2842 51.884V50.756H84.2242V59H90.2842V57.872H85.4482V55.364H89.8162V54.236H85.4482V51.884H90.2842ZM98.9583 50.756H97.5063L95.1183 53.912L92.7423 50.756H91.2783L94.3863 54.884L91.2783 59H92.7303L95.1063 55.844L97.4823 59H98.9583L95.8503 54.872L98.9583 50.756ZM104.192 59.144C105.368 59.144 106.448 58.64 107.228 57.848L106.376 57.032C105.824 57.632 105.044 58.028 104.192 58.028C102.548 58.028 101.156 56.588 101.156 54.872C101.156 53.168 102.548 51.728 104.192 51.728C105.044 51.728 105.824 52.124 106.376 52.724L107.228 51.908C106.448 51.104 105.368 50.612 104.192 50.612C101.876 50.612 99.908 52.556 99.908 54.872C99.908 57.188 101.876 59.144 104.192 59.144ZM114.507 51.884V50.756H108.447V59H114.507V57.872H109.671V55.364H114.039V54.236H109.671V51.884H114.507ZM118.981 59.132C120.925 59.132 121.981 58.076 121.981 56.684C121.981 55.208 120.841 54.656 119.197 54.272C117.841 53.948 117.133 53.684 117.133 52.916C117.133 52.256 117.781 51.668 118.705 51.668C119.545 51.668 120.373 52.04 121.069 52.676L121.765 51.764C120.973 51.068 120.025 50.6 118.753 50.6C117.097 50.6 115.897 51.644 115.897 53.024C115.897 54.512 117.013 55.016 118.693 55.412C120.073 55.724 120.757 56.024 120.757 56.804C120.757 57.464 120.169 58.064 119.029 58.064C117.913 58.064 117.049 57.608 116.317 56.912L115.585 57.812C116.461 58.652 117.601 59.132 118.981 59.132ZM126.422 59.132C128.366 59.132 129.422 58.076 129.422 56.684C129.422 55.208 128.282 54.656 126.638 54.272C125.282 53.948 124.574 53.684 124.574 52.916C124.574 52.256 125.222 51.668 126.146 51.668C126.986 51.668 127.814 52.04 128.51 52.676L129.206 51.764C128.414 51.068 127.466 50.6 126.194 50.6C124.538 50.6 123.338 51.644 123.338 53.024C123.338 54.512 124.454 55.016 126.134 55.412C127.514 55.724 128.198 56.024 128.198 56.804C128.198 57.464 127.61 58.064 126.47 58.064C125.354 58.064 124.49 57.608 123.758 56.912L123.026 57.812C123.902 58.652 125.042 59.132 126.422 59.132ZM130.924 59H132.136V50.756H130.924V59ZM140.439 50.756L137.571 57.44L134.703 50.756H133.359L136.899 59H138.243L141.783 50.756H140.439ZM149.054 51.884V50.756H142.994V59H149.054V57.872H144.218V55.364H148.586V54.236H144.218V51.884H149.054Z" fill="#A7A9AD"/>
</g>
<defs>
<clipPath id="clip0_1_715">
<rect width="232" height="232" fill="white"/>
</clipPath>
</defs>
</svg>
