<svg width="25" height="24" viewBox="0 0 25 24" fill="none" xmlns="http://www.w3.org/2000/svg">
<g id="icon/setting">
<path id="Subtract" d="M13.9943 4.74363H14.4943V4.72239L14.4925 4.70123L13.9943 4.74363ZM13.9943 4.7436L14.4925 4.70119L14.4918 4.69384L13.9943 4.7436ZM13.9943 4.74365H13.4943V4.76858L13.4968 4.7934L13.9943 4.74365ZM14.1148 5.52584L13.6525 5.71631L13.6525 5.71631L14.1148 5.52584ZM15.4238 6.06806L15.2316 5.60649L15.2316 5.60649L15.4238 6.06806ZM16.0622 5.60019L16.3788 5.98716V5.98716L16.0622 5.60019ZM16.4164 5.33577L16.6504 5.7776L16.6504 5.7776L16.4164 5.33577ZM17.4382 5.38673L17.7151 4.97038L17.7151 4.97038L17.4382 5.38673ZM17.7643 5.68508L18.1179 5.33153V5.33153L17.7643 5.68508ZM18.5149 6.43562L18.1613 6.78917L18.167 6.79487L18.1729 6.80038L18.5149 6.43562ZM18.5149 6.43563L18.8684 6.08207L18.8627 6.07637L18.8569 6.07086L18.5149 6.43563ZM18.8132 6.76174L19.2296 6.48487L19.2296 6.48487L18.8132 6.76174ZM18.8642 7.78359L18.4223 7.54953V7.54953L18.8642 7.78359ZM18.5998 8.13777L18.2128 7.82113L18.2093 7.82542L18.5998 8.13777ZM18.5998 8.13778L18.9868 8.45442L18.9902 8.45013L18.5998 8.13778ZM18.1319 8.77604L18.5935 8.96827V8.96827L18.1319 8.77604ZM18.6742 10.0851L18.4837 10.5474L18.6742 10.0851ZM19.4563 10.2056L19.4066 10.7031L19.4563 10.2056ZM19.8938 10.2691L20.0407 9.79117L19.8938 10.2691ZM20.5803 11.0277L21.0704 10.929V10.929L20.5803 11.0277ZM20.5803 12.9722L20.0901 12.8736V12.8736L20.5803 12.9722ZM19.8937 13.7309L20.0406 14.2088L20.0406 14.2088L19.8937 13.7309ZM19.4564 13.7943L19.5061 14.2918H19.5061L19.4564 13.7943ZM19.4563 13.7943L19.4066 13.2968L19.4066 13.2968L19.4563 13.7943ZM18.6745 13.9148L18.8649 14.3771L18.8649 14.3771L18.6745 13.9148ZM18.1322 15.224L18.5938 15.0317L18.5938 15.0317L18.1322 15.224ZM18.5999 15.862L18.2129 16.1786L18.2129 16.1786L18.5999 15.862ZM18.8642 16.216L19.306 15.9819L19.306 15.9819L18.8642 16.216ZM18.8132 17.238L19.2295 17.5149L19.2295 17.5149L18.8132 17.238ZM18.515 17.564L18.1614 17.2104L18.1614 17.2104L18.515 17.564ZM17.7644 18.3146L18.1179 18.6681L17.7644 18.3146ZM17.7644 18.3146L18.1179 18.6681L18.1179 18.6681L17.7644 18.3146ZM17.4382 18.6129L17.7151 19.0293L17.7151 19.0293L17.4382 18.6129ZM16.4164 18.6639L16.6505 18.2221H16.6505L16.4164 18.6639ZM16.0622 18.3995L16.3788 18.0125L16.3599 17.997L16.3395 17.9835L16.0622 18.3995ZM16.0622 18.3995L15.7456 18.7865L15.7645 18.8019L15.7848 18.8155L16.0622 18.3995ZM15.4239 17.9316L15.2317 18.3932L15.4239 17.9316ZM14.1148 18.4738L13.6525 18.2834V18.2834L14.1148 18.4738ZM13.9943 19.2562L14.4918 19.3059L13.9943 19.2562ZM13.9308 19.6939L13.4529 19.547L13.4529 19.547L13.9308 19.6939ZM13.1723 20.3803L13.271 20.8705H13.271L13.1723 20.3803ZM11.2276 20.3804L11.3263 19.8902H11.3263L11.2276 20.3804ZM10.4691 19.6939L10.947 19.5469L10.947 19.5469L10.4691 19.6939ZM10.4056 19.2564L9.90805 19.3061L10.4056 19.2564ZM10.2851 18.4742L9.82276 18.6646L9.82276 18.6646L10.2851 18.4742ZM8.97604 17.932L9.16825 18.3935H9.16825L8.97604 17.932ZM8.33769 18.3999L8.6543 18.7869L8.65431 18.7869L8.33769 18.3999ZM7.98343 18.6643L8.21747 19.1062H8.21747L7.98343 18.6643ZM6.96163 18.6134L6.68478 19.0297L6.68478 19.0297L6.96163 18.6134ZM6.63545 18.315L6.989 17.9614L6.63545 18.315ZM5.88498 17.5645L5.53142 17.9181H5.53143L5.88498 17.5645ZM5.58657 17.2383L5.17021 17.5151H5.17021L5.58657 17.2383ZM5.53561 16.2165L5.97746 16.4506L5.97746 16.4506L5.53561 16.2165ZM5.80009 15.8622L5.4238 15.533L5.41835 15.5392L5.41311 15.5456L5.80009 15.8622ZM5.8001 15.8622L6.17638 16.1915L6.18183 16.1853L6.18707 16.1789L5.8001 15.8622ZM6.26802 15.2239L5.80644 15.0316L5.80644 15.0316L6.26802 15.2239ZM5.72582 13.9149L5.53534 14.3771L5.53534 14.3772L5.72582 13.9149ZM4.94355 13.7943L4.8938 14.2918L4.8938 14.2918L4.94355 13.7943ZM4.50606 13.7308L4.35913 14.2087L4.35914 14.2088L4.50606 13.7308ZM3.81958 12.9723L3.32941 13.0709L3.81958 12.9723ZM3.79993 12.5306H3.29993H3.79993ZM3.79993 11.4694H4.29993H3.79993ZM3.81959 11.0276L3.32943 10.9289L3.81959 11.0276ZM4.50601 10.2691L4.65297 10.747L4.65297 10.747L4.50601 10.2691ZM4.94363 10.2056L4.99338 10.7031L4.94363 10.2056ZM5.72614 10.085L5.53561 9.62274H5.53561L5.72614 10.085ZM6.26829 8.77614L5.80669 8.9683L5.80669 8.9683L6.26829 8.77614ZM5.8002 8.13752L5.4002 8.43752L5.40653 8.44596L5.41322 8.45413L5.8002 8.13752ZM5.80019 8.13751L6.20019 7.83751L6.19386 7.82907L6.18717 7.82089L5.80019 8.13751ZM5.53561 7.78306L5.09375 8.01707L5.53561 7.78306ZM5.58656 6.76143L5.17018 6.48462L5.17018 6.48463L5.58656 6.76143ZM6.96167 5.38631L7.23852 5.80266H7.23852L6.96167 5.38631ZM7.98346 5.33534L8.21751 4.8935L8.21751 4.8935L7.98346 5.33534ZM8.33778 5.59984L8.6544 5.21287V5.21287L8.33778 5.59984ZM8.97595 6.06765L8.78367 6.52921V6.52921L8.97595 6.06765ZM10.2851 5.52537L10.7475 5.71578L10.2851 5.52537ZM10.4056 4.7435L9.91239 4.6613L9.90969 4.67746L9.90806 4.69375L10.4056 4.7435ZM10.4056 4.74349L10.8988 4.82569L10.9015 4.80954L10.9031 4.79324L10.4056 4.74349ZM10.469 4.30624L9.9911 4.15936L9.9911 4.15936L10.469 4.30624ZM11.2277 3.61964L11.3263 4.10982V4.10982L11.2277 3.61964ZM13.1722 3.61966L13.0736 4.10983L13.0736 4.10983L13.1722 3.61966ZM13.9308 4.30615L14.4087 4.15922V4.15922L13.9308 4.30615ZM14.4925 4.70123L14.4925 4.7012L13.4961 4.786L13.4961 4.78603L14.4925 4.70123ZM14.4943 4.74365V4.74363H13.4943V4.74365H14.4943ZM14.5771 5.33538C14.5738 5.32727 14.5612 5.29011 14.5448 5.17509C14.5288 5.06318 14.5138 4.91383 14.4918 4.69389L13.4968 4.7934C13.5179 5.00456 13.5352 5.17854 13.5548 5.31606C13.5739 5.45048 13.6 5.58887 13.6525 5.71631L14.5771 5.33538ZM15.2316 5.60649C14.976 5.71293 14.6826 5.59138 14.5771 5.33538L13.6525 5.71631C13.9689 6.48433 14.8492 6.84897 15.6161 6.52964L15.2316 5.60649ZM15.7455 5.21321C15.5745 5.35317 15.4582 5.44814 15.3678 5.51601C15.2749 5.58576 15.2397 5.60312 15.2316 5.60649L15.6161 6.52964C15.7433 6.47665 15.8596 6.39725 15.9682 6.31573C16.0793 6.23234 16.2145 6.12155 16.3788 5.98716L15.7455 5.21321ZM16.1823 4.89393C16.0393 4.96968 15.9048 5.08287 15.7455 5.21321L16.3788 5.98716C16.5744 5.82711 16.6174 5.79512 16.6504 5.7776L16.1823 4.89393ZM17.7151 4.97038C17.2568 4.66568 16.6686 4.63634 16.1823 4.89393L16.6504 5.7776C16.8125 5.69174 17.0086 5.70152 17.1613 5.80308L17.7151 4.97038ZM18.1179 5.33153C17.9724 5.18599 17.8498 5.05998 17.7151 4.97038L17.1613 5.80308C17.1925 5.8238 17.2321 5.85992 17.4108 6.03864L18.1179 5.33153ZM18.8684 6.08206L18.1179 5.33153L17.4108 6.03864L18.1613 6.78917L18.8684 6.08206ZM18.8569 6.07086L18.8568 6.07085L18.1729 6.80038L18.1729 6.8004L18.8569 6.07086ZM19.2296 6.48487C19.14 6.35014 19.014 6.2276 18.8684 6.08207L18.1613 6.78918C18.34 6.96788 18.3761 7.00745 18.3969 7.0386L19.2296 6.48487ZM19.306 8.01765C19.5636 7.53138 19.5343 6.9431 19.2296 6.48487L18.3969 7.0386C18.4984 7.19134 18.5082 7.38744 18.4223 7.54953L19.306 8.01765ZM18.9868 8.45438C19.1171 8.29511 19.2303 8.16063 19.306 8.01765L18.4223 7.54953C18.4048 7.58259 18.3728 7.62555 18.2128 7.82115L18.9868 8.45438ZM18.9902 8.45013L18.9902 8.45011L18.2093 7.82542L18.2093 7.82543L18.9902 8.45013ZM18.5935 8.96827C18.5969 8.96017 18.6142 8.92498 18.684 8.83208C18.7518 8.74169 18.8468 8.62545 18.9867 8.4544L18.2128 7.82116C18.0784 7.98539 17.9676 8.12063 17.8842 8.23171C17.8027 8.34029 17.7233 8.45658 17.6703 8.58382L18.5935 8.96827ZM18.8646 9.6228C18.6086 9.51733 18.487 9.22388 18.5935 8.96827L17.6703 8.58382C17.351 9.35065 17.7156 10.231 18.4837 10.5474L18.8646 9.6228ZM19.5061 9.70809C19.2861 9.68609 19.1368 9.67106 19.0249 9.65512C18.9099 9.63874 18.8727 9.62614 18.8646 9.6228L18.4837 10.5474C18.6111 10.5999 18.7495 10.626 18.8839 10.6451C19.0214 10.6647 19.1954 10.682 19.4066 10.7031L19.5061 9.70809ZM20.0407 9.79117C19.886 9.74363 19.7109 9.72857 19.5061 9.70809L19.4066 10.7031C19.6581 10.7283 19.7111 10.736 19.7469 10.747L20.0407 9.79117ZM21.0704 10.929C20.9619 10.3896 20.5667 9.95287 20.0407 9.79117L19.7469 10.747C19.9222 10.8009 20.0539 10.9465 20.0901 11.1263L21.0704 10.929ZM21.0999 11.4693C21.0999 11.2634 21.1024 11.0877 21.0704 10.929L20.0901 11.1263C20.0975 11.163 20.0999 11.2165 20.0999 11.4693H21.0999ZM21.0999 12.5307V11.4693H20.0999V12.5307H21.0999ZM21.0705 13.0708C21.1024 12.9122 21.0999 12.7365 21.0999 12.5307H20.0999C20.0999 12.7834 20.0975 12.8369 20.0901 12.8736L21.0705 13.0708ZM20.0406 14.2088C20.5667 14.0471 20.9619 13.6103 21.0705 13.0708L20.0901 12.8736C20.0539 13.0534 19.9222 13.199 19.7468 13.2529L20.0406 14.2088ZM19.5061 14.2918C19.7109 14.2714 19.886 14.2563 20.0406 14.2088L19.7468 13.2529C19.7111 13.2639 19.6581 13.2717 19.4066 13.2968L19.5061 14.2918ZM19.5061 14.2918L19.5061 14.2918L19.4066 13.2968L19.4066 13.2968L19.5061 14.2918ZM18.8649 14.3771C18.873 14.3738 18.9101 14.3612 19.0251 14.3448C19.137 14.3289 19.2863 14.3138 19.5061 14.2918L19.4066 13.2968C19.1955 13.3179 19.0216 13.3352 18.8842 13.3548C18.7498 13.3739 18.6115 13.4 18.4841 13.4524L18.8649 14.3771ZM18.5938 15.0317C18.4873 14.7761 18.6088 14.4825 18.8649 14.3771L18.4841 13.4524C17.7159 13.7688 17.3512 14.6493 17.6707 15.4163L18.5938 15.0317ZM18.9868 15.5453C18.847 15.3744 18.752 15.2582 18.6842 15.1678C18.6145 15.075 18.5971 15.0398 18.5938 15.0317L17.6707 15.4163C17.7236 15.5434 17.803 15.6597 17.8845 15.7682C17.9678 15.8792 18.0786 16.0144 18.2129 16.1786L18.9868 15.5453ZM19.306 15.9819C19.2303 15.839 19.1171 15.7046 18.9868 15.5453L18.2129 16.1786C18.3729 16.3741 18.4048 16.4171 18.4224 16.4501L19.306 15.9819ZM19.2295 17.5149C19.5343 17.0566 19.5637 16.4682 19.306 15.9819L18.4224 16.4501C18.5083 16.6122 18.4985 16.8083 18.3969 16.9611L19.2295 17.5149ZM18.8685 17.9175C19.014 17.7721 19.14 17.6496 19.2295 17.5149L18.3969 16.9611C18.3762 16.9922 18.3401 17.0318 18.1614 17.2104L18.8685 17.9175ZM18.1179 18.6681L18.8685 17.9175L18.1614 17.2104L17.4108 17.961L18.1179 18.6681ZM18.1179 18.6681L18.1179 18.6681L17.4108 17.961L17.4108 17.961L18.1179 18.6681ZM17.7151 19.0293C17.8498 18.9397 17.9724 18.8137 18.1179 18.6681L17.4108 17.961C17.2321 18.1398 17.1925 18.1759 17.1614 18.1966L17.7151 19.0293ZM16.1823 19.1057C16.6686 19.3633 17.2569 19.334 17.7151 19.0293L17.1614 18.1966C17.0086 18.2981 16.8125 18.3079 16.6505 18.2221L16.1823 19.1057ZM15.7456 18.7865C15.9049 18.9168 16.0394 19.03 16.1823 19.1057L16.6505 18.2221C16.6174 18.2046 16.5744 18.1726 16.3788 18.0125L15.7456 18.7865ZM15.7848 18.8155L15.7848 18.8155L16.3395 17.9835L16.3395 17.9835L15.7848 18.8155ZM15.2317 18.3932C15.2398 18.3965 15.275 18.4139 15.3679 18.4837C15.4583 18.5515 15.5745 18.6465 15.7456 18.7865L16.3788 18.0125C16.2146 17.8781 16.0793 17.7673 15.9682 17.6839C15.8596 17.6024 15.7433 17.523 15.6161 17.47L15.2317 18.3932ZM14.5771 18.6643C14.6826 18.4083 14.9761 18.2867 15.2317 18.3932L15.6161 17.47C14.8493 17.1507 13.969 17.5153 13.6525 18.2834L14.5771 18.6643ZM14.4918 19.3059C14.5138 19.086 14.5289 18.9366 14.5448 18.8246C14.5612 18.7096 14.5738 18.6724 14.5771 18.6643L13.6525 18.2834C13.6 18.4108 13.5739 18.5492 13.5548 18.6837C13.5352 18.8212 13.5179 18.9952 13.4968 19.2064L14.4918 19.3059ZM14.4087 19.8409C14.4563 19.6862 14.4713 19.5109 14.4918 19.3059L13.4968 19.2064C13.4716 19.4581 13.4639 19.5112 13.4529 19.547L14.4087 19.8409ZM13.271 20.8705C13.8103 20.7619 14.247 20.3668 14.4087 19.8409L13.4529 19.547C13.399 19.7223 13.2534 19.854 13.0736 19.8902L13.271 20.8705ZM12.7305 20.9C12.9364 20.9 13.1123 20.9025 13.271 20.8705L13.0736 19.8902C13.0369 19.8976 12.9834 19.9 12.7305 19.9V20.9ZM11.6692 20.9H12.7305V19.9H11.6692V20.9ZM11.129 20.8705C11.2876 20.9025 11.4634 20.9 11.6692 20.9V19.9C11.4165 19.9 11.363 19.8976 11.3263 19.8902L11.129 20.8705ZM9.99114 19.8408C10.1528 20.3668 10.5895 20.762 11.129 20.8705L11.3263 19.8902C11.1465 19.854 11.0009 19.7223 10.947 19.5469L9.99114 19.8408ZM9.90805 19.3061C9.92853 19.511 9.94359 19.6861 9.99114 19.8408L10.947 19.5469C10.936 19.5112 10.9282 19.4582 10.9031 19.2066L9.90805 19.3061ZM9.82276 18.6646C9.8261 18.6728 9.83871 18.7099 9.85508 18.8249C9.87102 18.9369 9.88606 19.0862 9.90805 19.3061L10.9031 19.2066C10.882 18.9955 10.8647 18.8215 10.8451 18.684C10.826 18.5495 10.7999 18.4112 10.7474 18.2837L9.82276 18.6646ZM9.16825 18.3935C9.42385 18.2871 9.71728 18.4086 9.82276 18.6646L10.7474 18.2837C10.4309 17.5157 9.55063 17.1511 8.78382 17.4704L9.16825 18.3935ZM8.65431 18.7869C8.82539 18.6469 8.94163 18.5519 9.03204 18.484C9.12496 18.4143 9.16015 18.3969 9.16825 18.3935L8.78383 17.4704C8.65657 17.5234 8.54026 17.6028 8.43167 17.6843C8.32058 17.7677 8.18532 17.8785 8.02107 18.0129L8.65431 18.7869ZM8.21747 19.1062C8.36048 19.0304 8.49499 18.9172 8.6543 18.7869L8.02107 18.0129C7.82542 18.173 7.78245 18.205 7.74938 18.2225L8.21747 19.1062ZM6.68478 19.0297C7.14298 19.3344 7.73123 19.3637 8.21747 19.1062L7.74938 18.2225C7.5873 18.3083 7.39122 18.2986 7.23848 18.197L6.68478 19.0297ZM6.2819 18.6685C6.42745 18.8141 6.55002 18.9401 6.68478 19.0297L7.23848 18.197C7.20732 18.1763 7.16774 18.1402 6.989 17.9614L6.2819 18.6685ZM5.53143 17.9181L6.2819 18.6685L6.989 17.9614L6.23853 17.211L5.53143 17.9181ZM5.17021 17.5151C5.25982 17.6499 5.38586 17.7725 5.53142 17.9181L6.23853 17.211C6.05978 17.0322 6.02366 16.9926 6.00294 16.9615L5.17021 17.5151ZM5.09377 15.9825C4.83621 16.4687 4.86555 17.057 5.17021 17.5151L6.00294 16.9615C5.90138 16.8087 5.8916 16.6127 5.97746 16.4506L5.09377 15.9825ZM5.41311 15.5456C5.28275 15.705 5.16953 15.8395 5.09377 15.9825L5.97746 16.4506C5.99497 16.4175 6.02698 16.3745 6.18706 16.1789L5.41311 15.5456ZM5.42381 15.533L5.4238 15.533L6.17637 16.1915L6.17638 16.1915L5.42381 15.533ZM5.80644 15.0316C5.80307 15.0397 5.78571 15.0749 5.71595 15.1679C5.64808 15.2583 5.5531 15.3745 5.41312 15.5456L6.18707 16.1789C6.32147 16.0146 6.43227 15.8793 6.51568 15.7682C6.5972 15.6596 6.67662 15.5433 6.72961 15.4161L5.80644 15.0316ZM5.53534 14.3772C5.79133 14.4826 5.91287 14.7761 5.80644 15.0316L6.72961 15.4161C7.0489 14.6493 6.68428 13.769 5.9163 13.4526L5.53534 14.3772ZM4.8938 14.2918C5.11375 14.3138 5.26312 14.3289 5.37504 14.3448C5.49007 14.3612 5.52723 14.3738 5.53534 14.3771L5.9163 13.4526C5.78885 13.4 5.65044 13.3739 5.51601 13.3548C5.37847 13.3352 5.20448 13.3179 4.9933 13.2968L4.8938 14.2918ZM4.35914 14.2088C4.51382 14.2563 4.68898 14.2714 4.8938 14.2918L4.9933 13.2968C4.74178 13.2717 4.68877 13.2639 4.65299 13.2529L4.35914 14.2088ZM3.32941 13.0709C3.43797 13.6104 3.83318 14.0471 4.35913 14.2087L4.653 13.2529C4.47768 13.199 4.34594 13.0534 4.30975 12.8736L3.32941 13.0709ZM3.29993 12.5306C3.29993 12.7365 3.29748 12.9123 3.32941 13.0709L4.30975 12.8736C4.30237 12.8369 4.29993 12.7834 4.29993 12.5306H3.29993ZM3.29993 11.4694L3.29993 12.5306L4.29993 12.5306L4.29993 11.4694H3.29993ZM3.32943 10.9289C3.29748 11.0876 3.29993 11.2635 3.29993 11.4694H4.29993C4.29993 11.2165 4.30237 11.163 4.30976 11.1263L3.32943 10.9289ZM4.35904 9.79121C3.83316 9.95292 3.43801 10.3896 3.32943 10.9289L4.30976 11.1263C4.34595 10.9465 4.47767 10.8009 4.65297 10.747L4.35904 9.79121ZM4.89387 9.70808C4.68899 9.72857 4.51377 9.74363 4.35904 9.79121L4.65297 10.747C4.68875 10.736 4.74178 10.7283 4.99338 10.7031L4.89387 9.70808ZM5.53561 9.62274C5.5275 9.62608 5.49033 9.6387 5.37527 9.65509C5.26331 9.67103 5.1139 9.68608 4.89387 9.70808L4.99338 10.7031C5.20463 10.682 5.37867 10.6647 5.51625 10.6451C5.65072 10.6259 5.78917 10.5998 5.91666 10.5473L5.53561 9.62274ZM5.80669 8.9683C5.91308 9.22388 5.79156 9.51725 5.53561 9.62274L5.91666 10.5473C6.68451 10.2308 7.04907 9.3507 6.72989 8.58398L5.80669 8.9683ZM5.41322 8.45413C5.55325 8.62529 5.64827 8.74159 5.71617 8.83204C5.78595 8.92499 5.80332 8.9602 5.80669 8.9683L6.72989 8.58398C6.67689 8.45668 6.59745 8.34031 6.5159 8.23168C6.43247 8.12054 6.32162 7.98523 6.18717 7.8209L5.41322 8.45413ZM5.40019 8.43751L5.4002 8.43752L6.2002 7.83752L6.20019 7.83751L5.40019 8.43751ZM5.09375 8.01707C5.16952 8.16015 5.2828 8.29473 5.41321 8.45413L6.18717 7.82089C6.02701 7.62514 5.99499 7.58215 5.97747 7.54906L5.09375 8.01707ZM5.17018 6.48463C4.86561 6.94277 4.83627 7.53089 5.09375 8.01707L5.97747 7.54906C5.89165 7.387 5.90142 7.19096 6.00295 7.03824L5.17018 6.48463ZM5.53153 6.08154C5.38591 6.22716 5.25982 6.34979 5.17018 6.48462L6.00295 7.03824C6.02368 7.00706 6.05981 6.96747 6.23864 6.78864L5.53153 6.08154ZM6.28193 5.33114L5.53153 6.08154L6.23864 6.78864L6.98904 6.03824L6.28193 5.33114ZM6.68482 4.96995C6.55006 5.05955 6.42749 5.18558 6.28193 5.33114L6.98904 6.03824C7.16778 5.8595 7.20735 5.82339 7.23852 5.80266L6.68482 4.96995ZM8.21751 4.8935C7.73126 4.63593 7.14302 4.66527 6.68482 4.96995L7.23852 5.80266C7.39125 5.70111 7.58733 5.69133 7.74941 5.77718L8.21751 4.8935ZM8.6544 5.21287C8.49505 5.08249 8.36051 4.96926 8.21751 4.8935L7.74941 5.77718C7.78248 5.7947 7.82547 5.82671 8.02116 5.98682L8.6544 5.21287ZM9.16822 5.6061C9.16014 5.60273 9.12495 5.58537 9.03205 5.51563C8.94166 5.44777 8.82544 5.35281 8.6544 5.21287L8.02116 5.98682C8.18538 6.12119 8.3206 6.23195 8.43166 6.31534C8.54021 6.39683 8.65648 6.47622 8.78367 6.52921L9.16822 5.6061ZM9.82282 5.33496C9.71736 5.59102 9.42386 5.71259 9.16822 5.6061L8.78367 6.52921C9.55058 6.84868 10.4311 6.48397 10.7475 5.71578L9.82282 5.33496ZM9.90806 4.69375C9.88608 4.91359 9.87105 5.06287 9.85512 5.17474C9.83875 5.28971 9.82615 5.32685 9.82282 5.33496L10.7475 5.71578C10.7999 5.58838 10.826 5.45005 10.8451 5.31569C10.8647 5.17822 10.882 5.00432 10.9031 4.79325L9.90806 4.69375ZM9.91239 4.66129L9.91239 4.6613L10.8988 4.8257L10.8988 4.82569L9.91239 4.66129ZM9.9911 4.15936C9.94359 4.31397 9.92854 4.48903 9.90807 4.69374L10.9031 4.79324C10.9282 4.54186 10.936 4.48888 10.947 4.45312L9.9911 4.15936ZM11.1291 3.12946C10.5896 3.23799 10.1528 3.63328 9.9911 4.15936L10.947 4.45312C11.0009 4.27776 11.1465 4.146 11.3263 4.10982L11.1291 3.12946ZM11.6691 3.10001C11.4634 3.10001 11.2877 3.09756 11.1291 3.12946L11.3263 4.10982C11.363 4.10245 11.4165 4.10001 11.6691 4.10001V3.10001ZM12.7306 3.10001H11.6691V4.10001H12.7306V3.10001ZM13.2709 3.12949C13.1122 3.09756 12.9365 3.10001 12.7306 3.10001V4.10001C12.9834 4.10001 13.0369 4.10245 13.0736 4.10983L13.2709 3.12949ZM14.4087 4.15922C14.247 3.63326 13.8103 3.23805 13.2709 3.12949L13.0736 4.10983C13.2534 4.14602 13.399 4.27776 13.4529 4.45308L14.4087 4.15922ZM14.4918 4.69384C14.4713 4.48905 14.4563 4.31389 14.4087 4.15922L13.4529 4.45308C13.4639 4.48884 13.4716 4.54185 13.4968 4.79335L14.4918 4.69384ZM15.0599 12C15.0599 13.5795 13.7795 14.86 12.1999 14.86V15.86C14.3318 15.86 16.0599 14.1318 16.0599 12H15.0599ZM12.1999 9.13997C13.7795 9.13997 15.0599 10.4204 15.0599 12H16.0599C16.0599 9.86815 14.3318 8.13997 12.1999 8.13997V9.13997ZM9.33994 12C9.33994 10.4204 10.6204 9.13997 12.1999 9.13997V8.13997C10.0681 8.13997 8.33994 9.86815 8.33994 12H9.33994ZM12.1999 14.86C10.6204 14.86 9.33994 13.5795 9.33994 12H8.33994C8.33994 14.1318 10.0681 15.86 12.1999 15.86V14.86Z" fill="#4998EE"/>
</g>
</svg>
