<svg width="24" height="24" viewBox="0 0 24 24" fill="none" xmlns="http://www.w3.org/2000/svg">
<g id="icon/user">
<path id="Vector" d="M21.7406 19.875C20.3411 17.4643 18.1011 15.6549 15.4499 14.7938C16.7207 14.0381 17.7082 12.8861 18.2608 11.5148C18.8134 10.1435 18.9004 8.62865 18.5086 7.20306C18.1167 5.77746 17.2677 4.51995 16.0918 3.6237C14.916 2.72745 13.4784 2.24203 11.9999 2.24203C10.5215 2.24203 9.0839 2.72745 7.90807 3.6237C6.73223 4.51995 5.88317 5.77746 5.49133 7.20306C5.09949 8.62865 5.18653 10.1435 5.7391 11.5148C6.29166 12.8861 7.27918 14.0381 8.54994 14.7938C5.89879 15.6549 3.65876 17.4643 2.25932 19.875C2.20062 19.9602 2.16017 20.0565 2.14051 20.1581C2.12085 20.2596 2.1224 20.3641 2.14507 20.465C2.16773 20.5659 2.21103 20.6611 2.27223 20.7444C2.33342 20.8278 2.41121 20.8976 2.50068 20.9495C2.59016 21.0014 2.6894 21.0342 2.79216 21.0459C2.89493 21.0575 2.99899 21.0478 3.09783 21.0174C3.19666 20.9869 3.28812 20.9363 3.36647 20.8688C3.44481 20.8013 3.50834 20.7183 3.55307 20.625C4.4103 19.1437 5.64199 17.9139 7.12458 17.059C8.60716 16.204 10.2885 15.754 11.9999 15.754C13.7114 15.754 15.3927 16.204 16.8753 17.059C18.3579 17.9139 19.5896 19.1437 20.4468 20.625C20.4915 20.7183 20.5551 20.8013 20.6334 20.8688C20.7118 20.9363 20.8032 20.9869 20.9021 21.0174C21.0009 21.0478 21.105 21.0575 21.2077 21.0459C21.3105 21.0342 21.4097 21.0014 21.4992 20.9495C21.5887 20.8976 21.6665 20.8278 21.7277 20.7444C21.7889 20.6611 21.8322 20.5659 21.8548 20.465C21.8775 20.3641 21.879 20.2596 21.8594 20.1581C21.8397 20.0565 21.7993 19.9602 21.7406 19.875ZM6.74994 9.00001C6.74994 7.96166 7.05785 6.94662 7.63473 6.08326C8.21161 5.21991 9.03154 4.547 9.99086 4.14964C10.9502 3.75228 12.0058 3.64831 13.0242 3.85089C14.0426 4.05346 14.978 4.55347 15.7123 5.2877C16.4465 6.02192 16.9465 6.95738 17.1491 7.97578C17.3516 8.99418 17.2477 10.0498 16.8503 11.0091C16.453 11.9684 15.78 12.7883 14.9167 13.3652C14.0533 13.9421 13.0383 14.25 11.9999 14.25C10.6076 14.25 9.2722 13.6969 8.28763 12.7123C7.30307 11.7278 6.74994 10.3924 6.74994 9.00001Z" fill="#3CDC86"/>
</g>
</svg>
